<svg width="370" height="561" viewBox="0 0 370 561" fill="none" xmlns="http://www.w3.org/2000/svg">
    <path fill-rule="evenodd" clip-rule="evenodd" d="M174.724 0.472184L0.00048873 0.472168L0.000488281 10.75L174.724 10.75V62.1382L87.3616 62.1381V67.277H174.724V118.666H87.3616V123.805H174.724V175.194H87.3616V180.333H174.724V231.722H87.3616V236.861H174.724V288.25H87.3616V293.389H174.724V344.778H87.3616V349.917H174.724V401.306H87.3616V406.445H174.724V457.832H87.3616V462.971H174.724V514.36H87.3616V519.499H174.724V560.61H195.28V519.499H277.5V514.36H195.28V462.971H277.5V457.832H195.28V406.445H277.5V401.306H195.28V349.917H277.5V344.778H195.28V293.389H277.5V288.25H195.28V236.861H277.5V231.722H195.28V180.333H277.5V175.194H195.28V123.805H277.5V118.666H195.28V67.277H277.5V62.1382L195.28 62.1382V10.75L370 10.75V0.472184H195.28H174.724Z" fill="#C3A475"/>
</svg>
